<?xml version="1.0" standalone="no"?>
<!DOCTYPE svg PUBLIC "-//W3C//DTD SVG 20010904//EN"
 "http://www.w3.org/TR/2001/REC-SVG-20010904/DTD/svg10.dtd">
<svg version="1.0" xmlns="http://www.w3.org/2000/svg"
 width="280.000000pt" height="280.000000pt" viewBox="0 0 280.000000 280.000000"
 preserveAspectRatio="xMidYMid meet">
<metadata>
Created by potrace 1.11, written by Peter Selinger 2001-2013
</metadata>
<g transform="translate(0.000000,280.000000) scale(0.100000,-0.100000)"
fill="#000000" stroke="none">
<path d="M1240 2793 c-331 -50 -604 -182 -820 -395 -224 -221 -359 -488 -408
-808 -9 -60 -9 -321 1 -390 60 -431 339 -827 729 -1035 l85 -45 27 62 c21 48
24 63 14 69 -7 5 -16 9 -20 9 -14 0 -135 75 -203 125 -314 233 -499 591 -509
984 -10 406 173 789 494 1036 140 107 339 200 495 231 140 28 326 36 445 20
72 -10 197 -41 266 -67 31 -12 57 -19 59 -17 2 1 14 29 28 60 l25 56 -52 22
c-138 55 -281 81 -471 84 -88 2 -171 1 -185 -1z"/>
<path d="M2187 2477 l-26 -62 42 -35 c305 -259 471 -622 461 -1013 -14 -605
-457 -1114 -1058 -1215 -101 -17 -183 -19 -399 -9 -38 2 -39 1 -62 -56 -17
-41 -21 -59 -12 -62 77 -23 369 -29 482 -9 141 25 267 65 390 124 407 196 689
565 775 1015 18 93 21 347 6 445 -49 309 -182 574 -397 789 -48 47 -106 100
-131 118 l-45 32 -26 -62z"/>
<path d="M785 1689 c-2 -3 12 -11 30 -18 48 -17 83 -72 138 -216 45 -120 111
-289 169 -437 17 -43 33 -78 37 -78 4 0 31 58 59 130 l52 130 -70 187 c-84
228 -88 245 -58 273 12 11 28 20 35 20 7 0 13 3 13 8 0 8 -400 10 -405 1z"/>
<path d="M1240 1690 c0 -3 13 -11 29 -17 16 -6 36 -21 44 -34 13 -19 211 -517
262 -659 7 -19 17 -36 21 -37 5 -1 32 55 61 126 l52 128 -36 94 c-94 249 -112
310 -101 339 6 19 22 34 46 44 20 8 33 16 27 17 -27 4 -405 3 -405 -1z"/>
<path d="M1710 1689 c0 -3 17 -11 38 -17 63 -19 73 -63 46 -187 -5 -23 5 -13
42 42 51 74 108 128 157 145 15 6 25 13 22 17 -8 8 -305 9 -305 0z"/>
</g>
</svg>
